<?xml version="1.0" encoding="UTF-8"?>
<svg id="Layer_1" xmlns="http://www.w3.org/2000/svg" version="1.1" viewBox="0 0 611 228">
  <!-- Generator: Adobe Illustrator 29.4.0, SVG Export Plug-In . SVG Version: 2.1.0 Build 152)  -->
  <defs>
    <style>
      .st0 {
        fill: #f7a401;
      }

      .st1 {
        fill: #f7a607;
      }

      .st2 {
        fill: #f7a606;
      }

      .st3 {
        fill: #f7a605;
      }

      .st4 {
        fill: #f7a80a;
      }

      .st5 {
        fill: #f8ab12;
      }

      .st6 {
        fill: #f7a708;
      }

      .st7 {
        fill: #f7a707;
      }

      .st8 {
        fill: #f7a503;
      }

      .st9 {
        fill: #f7a504;
      }

      .st10 {
        fill: #f7a709;
      }
    </style>
  </defs>
  <path class="st0" d="M13.8,88.3c.5-10.4,3-20.1,7.4-29.4,3-6.4,6.7-12.2,11.1-17.5,8.1-9.7,17.8-17,28.9-22.2,5.6-2.6,11.3-4.6,17.3-5.9,2.4-.5,4.8-1,7.2-1.3,1.7-.2,3.5-.4,5.2-.5,2.8-.2,5.7-.3,8.5-.2,2.6,0,5.2.3,7.8.6,1.7.2,3.5.5,5.2.8,3.8.7,7.5,1.6,11.2,2.8,7.9,2.6,15.2,6.2,22.1,11,9.8,6.9,18,15.5,24.2,26.2,4.4,7.6,7.5,15.7,9.3,24.4.5,2.7.9,5.3,1.2,8.1.4,4.5.5,9.1.2,13.6-.3,5-1.2,9.8-2.4,14.6-2.8,10.4-7.5,19.8-13.9,28.2-7.8,10.2-17.4,18-28.5,23.7-6.2,3.1-12.6,5.5-19.3,7-2.3.5-4.6,1-6.9,1.3-1.6.2-3.2.4-4.7.5-3.7.4-7.5.3-11.2.3-2.4,0-4.7-.3-7.1-.6-1.7-.2-3.4-.5-5-.8-5-.9-9.9-2.3-14.6-4.1-7.8-3-15.1-7-21.7-12.2-8.5-6.6-15.6-14.6-21-24.2-4.1-7.2-7.1-15-8.8-23.3-.5-2.5-.9-5.1-1.2-7.7-.2-1.5-.3-3-.3-4.5M109.8,117.8c0-.3.2-.5.2-.6,0-.6,0-1.2,0-1.8v-48.8c0-.2,0-.4,0-.5,0-.1.3-.3.4-.3.3,0,.7.2,1,.2,3.1.6,6,1.6,8.9,3,4,1.9,7,5,8.8,9.4.9,2.3,1.6,4.7,1.8,7.2.2,2.2.4,4.5.4,6.7,0,3,0,6-.3,9.1-.3,2.9-1,5.7-2.2,8.4-.4.9-.9,1.8-1.5,2.7-2,2.8-4.4,5-7.5,6.4-2.4,1.2-4.9,1.9-7.4,2.5-1.6.4-3.2.7-4.9.9-2,.3-4.1.5-6.1.6-2.6,0-5.2,0-7.8,0-.7,0-1.4,0-2-.1-1.5-.2-3-.3-4.6-.5-2.9-.4-5.7-1-8.5-2-2.4-.8-4.6-1.9-6.7-3.4-2.9-2.2-5-5-6.3-8.6-1-2.7-1.5-5.6-1.7-8.5,0-.8,0-1.7-.1-2.5-.3-4.2,0-8.3.4-12.5.3-2.6,1.1-5.1,2.2-7.4,1.2-2.6,3.1-4.8,5.4-6.5,1.2-.9,2.4-1.6,3.7-2.1,1.3-.6,2.6-1.1,4-1.5.4-.1.9-.3,1.3-.4.3,0,.5-.3.5-.7v-.4c0-2.8,0-5.6-.1-8.3,0-.2,0-.5,0-.7,0-.1-.2-.3-.4-.3-.2,0-.5,0-.7,0-2.3.4-4.7.8-7,1.4-4,1-7.9,2.2-11.6,4-4.3,2-8.3,4.5-11.7,7.9-3.8,3.7-6.6,8.2-8.1,13.4-1.5,5.1-1.9,10.3-1.2,15.6.7,5.3,2.6,10.1,5.7,14.4,1.6,2.3,3.5,4.3,5.6,6.1,2.5,2.1,5.2,3.9,8,5.5,6.7,3.6,13.8,5.7,21.2,6.9,1.1.2,2.2.3,3.4.5.2,0,.4.3.4.5,0,1.8,0,3.5-.1,5.2-.1.8-.2,1.7-.4,2.5-.4,1.6-1.4,2.5-2.8,2.8-.7.2-1.4.3-2.2.4-2.3.2-4.6.3-7,.4-.7,0-1.4.1-2,.2-.5,0-1,.3-1.3.7-.3.3-.5.7-.7,1-.5,1-.5,2.1-.4,3.2,0,.8.3,1.5.8,2.2.6.9,1.4,1.4,2.5,1.3.7,0,1.5,0,2.2,0,2.7-.2,5.3-.2,8-.2,2,0,4,0,6,0,9.2,0,18.4,0,27.6,0,2.2,0,4.4.1,6.6.2.8,0,1.7,0,2.5,0,.9,0,1.5-.3,2.1-1,.4-.4.7-1,.9-1.5.2-.5.3-1.1.3-1.6,0-1-.2-2.1-.7-2.9-.5-.8-1.1-1.4-2.1-1.4-.5,0-1-.1-1.5-.1-2.3,0-4.6-.3-7-.4-.8,0-1.7-.2-2.5-.4-1.4-.4-2.4-1.3-2.8-2.9-.1-.5-.3-1.1-.3-1.6-.2-1.9-.3-3.7-.3-5.6,0-.2,0-.4,0-.5,0-.2.2-.3.3-.4.1,0,.3-.1.5-.1,1.6-.1,3.1-.4,4.7-.7,3.5-.6,7-1.5,10.4-2.6,4.7-1.6,9.1-3.6,13.3-6.4,3.7-2.5,7-5.5,9.7-9.3,3.4-4.7,5.3-10.1,5.8-16,.3-3.4,0-6.9-.6-10.3-1.1-5.4-3.2-10.2-6.6-14.3-2.4-2.9-5.1-5.3-8.2-7.3-3.4-2.3-7.1-4-11-5.3-5.6-1.9-11.3-3.1-17.1-3.7-.2,0-.3,0-.5,0-.5,0-.7-.3-.7-.8,0-.5,0-1,0-1.5,0-6.1,0-12.2.2-18.3,0-1.4,0-2.8.3-4.2.2-1.1-.2-2-1-2.8-.6-.6-1.3-1-2.1-1.1-.9-.1-1.7,0-2.5.2-1.1.3-2.2.7-3.2,1.1-3.5,1.2-7,2.4-10.6,3.3-2.6.6-5.3,1.2-8,1.7-4.2.8-8.4,1.6-12.6,2.1-1,.1-1.7.6-2.2,1.5-1.1,2-.7,4.4.4,5.8.4.6,1,1,1.7,1.1.6,0,1.1.2,1.7.2.5,0,.9,0,1.4.2,1.5.2,2.9.4,4.4.6,1,.1,1.9.3,2.9.4.6.1,1.2.3,1.8.7.7.4,1.2.9,1.5,1.7.2.4.3.9.4,1.4.2,1.1.3,2.1.3,3.2,0,4.4.2,8.8.3,13.2.1,10.1.1,20.2-.1,30.3-.2,6.8-.2,13.7-.1,20.5,0,.3,0,.6,0,.9,0,.2.2.4.4.5.2,0,.3,0,.5.1,1.1.2,2.1.3,3.2.5,2.7.4,5.4.6,8.1.6,2,0,4,0,6-.2,2.3-.2,4.5-.5,6.8-.9h0Z"/>
  <path class="st6" d="M226.7.2c0,.4.4.4.6.6.3.4.5.8.5,1.3,0,.5,0,1-.2,1.4-1.9,9.5-3.8,19-5.7,28.6-1.5,7.7-3.1,15.4-4.6,23.1-1.4,7-2.8,14-4.2,20.9-1.1,5.5-2.2,11-3.3,16.5-1.3,6.6-2.6,13.1-3.9,19.7-1,4.8-2,9.7-2.9,14.5-1,5.2-2.1,10.4-3.1,15.6-1.2,6.2-2.5,12.3-3.7,18.4-1.5,7.7-3,15.4-4.6,23.1-.3,1.7-.7,3.3-1,5,0,.2-.1.5-.2.7-.3.9-1.2,1.4-2,1.2-.8-.2-1.4-1.2-1.3-2.1.2-1,.4-2,.6-3,1.4-7,2.8-14.1,4.2-21.1,1.1-5.3,2.1-10.5,3.2-15.8,1.2-6.2,2.5-12.3,3.7-18.4,1-5.2,2.1-10.4,3.1-15.6,1.1-5.6,2.2-11.1,3.3-16.7,1.3-6.6,2.6-13.1,3.9-19.7,1.3-6.5,2.6-13,3.9-19.5,1.3-6.6,2.6-13.1,3.9-19.7,1.3-6.5,2.6-13,3.9-19.5,1.1-5.3,2.1-10.6,3.2-16,.1-.5.2-1.1.3-1.6.1-.8.4-1.4,1.2-1.7,0,0,.2-.2.2-.3h1Z"/>
  <path class="st3" d="M346.4,65.4c.6.7.8,1.4,1.1,2,3.7,7.8,7.4,15.5,11.1,23.3.3.7.7,1.4,1.1,2.1,0,0,.2,0,.3,0,.2-.3.4-.6.6-.9,1-2.1,2-4.2,3-6.3,2.9-6.1,5.7-12.2,8.6-18.3,0-.1,0-.2.1-.3.9-1.7.5-1.5,2.5-1.6h7.8c.3,0,.6,0,.8.1,0,0,.2.2.2.3,0,.2,0,.3,0,.5,0,.5,0,1,0,1.5v42.3c0,.8-.2.9-.9.9h-6.6c-.2,0-.4,0-.7,0-.2,0-.4-.3-.4-.5,0-.6,0-1.2,0-1.8v-25.4c0-.7,0-1.3,0-2-.1,0-.3,0-.3,0-.3.5-.5.9-.7,1.4-3.4,7.3-6.8,14.6-10.2,21.9-.2.5-.4,1.1-.8,1.6-1.2.2-4.7.2-6.1,0-.4-.4-.5-.9-.8-1.4-3.3-7.1-6.7-14.3-10-21.4-.2-.5-.4-1-.7-1.5-.2-.3-.2-.7-.6-.8-.2.2-.1.5-.1.8,0,.7,0,1.3,0,2v24.3c0,3,.4,2.6-2.4,2.6-1.6,0-3.2,0-4.8,0s-.7,0-1,0c-.3,0-.5-.3-.5-.6,0-.5,0-1,0-1.5v-41.4c0-2.2-.2-2.1,1.9-2.1h7.2c.5,0,1,0,1.5,0h0Z"/>
  <path class="st8" d="M311.3,153c0,4.1-.8,7.9-2.7,11.5-2.3,4.4-5.6,7.6-9.8,9.7-2.1,1.1-4.3,1.8-6.6,2.1-2,.3-4.1.4-6.1.2-2.5-.3-4.9-.9-7.2-1.9-5.1-2.4-9-6.2-11.4-11.7-1.2-2.8-1.8-5.7-1.9-8.8,0-2.2,0-4.5.6-6.7,1.7-7,5.7-12.1,11.8-15.3,2.4-1.3,5-2,7.7-2.3,1.1,0,2.1-.3,3.2-.2,5.4.2,10.4,1.8,14.6,5.5,4,3.4,6.5,7.8,7.5,13.2.3,1.5.4,3.1.4,4.7h0ZM301.4,153.3c0-1.5-.1-2.9-.5-4.3-1.9-7.4-8.6-11.6-15-10.1-2.9.7-5.4,2.2-7.3,4.6-2.7,3.4-3.7,7.3-3.1,11.7.5,3.9,2.3,7.1,5.2,9.5,2.9,2.4,6.2,3.4,9.9,2.7,3.4-.6,6-2.4,8.1-5.3,1.9-2.7,2.8-5.7,2.8-8.8Z"/>
  <path class="st8" d="M328.8,88.1c0,6.6-2.2,12.3-6.7,16.9-3.1,3.2-6.8,5.2-11,6.1-1.8.4-3.6.6-5.4.6-5.3,0-10.2-1.7-14.4-5.2-4.1-3.4-6.7-7.8-7.8-13.2-.9-4.6-.7-9.1.9-13.5,1.6-4.5,4.3-8.1,8-10.7,2.6-1.8,5.4-3.1,8.4-3.7,2.4-.5,4.8-.6,7.3-.4,3.3.3,6.5,1.2,9.4,3,5.8,3.4,9.4,8.6,10.8,15.5.3,1.6.5,3.2.4,4.9h0ZM319,88c0-3.4-1-6.5-3-9.2-2.8-3.8-7.7-5.8-12.1-4.9-2.6.6-4.8,1.7-6.7,3.6-3.2,3.3-4.5,7.4-4.1,12.2.3,2.9,1.2,5.4,2.9,7.6,2.3,3.1,5.3,4.9,9,5.3,4.2.4,7.8-1.2,10.6-4.6,2.4-2.8,3.4-6.2,3.4-10Z"/>
  <path class="st3" d="M588.7,95.9c.6,1,1.1,1.9,1.6,2.7,2,3.3,4,6.6,6,9.9.3.5.6,1,.9,1.6.1.2,0,.5,0,.7-1.3.1-8.8.1-10.2,0-.4-.3-.6-.8-.8-1.2-1.7-3.3-3.5-6.7-5.2-10-.3-.5-.6-1.1-.8-1.6-.2,0-.3-.1-.5-.1-2.9,0-5.8,0-8.7,0s-.7.2-.7.6c0,.5,0,1,0,1.5v8.9c0,.5,0,1,0,1.5,0,.3-.3.5-.6.6-.2,0-.3,0-.5,0h-7.5c-.2,0-.4,0-.7,0-.2,0-.4-.3-.4-.5,0-.2,0-.4,0-.5v-42.1c0-.5,0-1.1,0-1.6,0-.5.2-.7.8-.7h.8c5.5,0,11,0,16.5,0,1.5,0,3.1.1,4.6.3,2,.3,3.9.8,5.7,1.7,3.6,1.8,6,4.7,7.1,8.8.3,1.2.5,2.5.6,3.8,0,1.9,0,3.8-.4,5.6-.6,3-1.9,5.7-4.1,7.8-.6.6-1.3,1.2-2,1.6-.4.3-.9.6-1.4.9h0ZM570.2,81.5v5.8c0,.5,0,1,0,1.5,0,.3.2.5.6.5.2,0,.3,0,.5,0h8.2c1,0,2-.1,3-.4,2.6-.8,4.2-2.5,4.8-5.3.2-.9.2-1.9.1-2.9-.2-2.9-1.5-4.9-4-5.9-1.2-.5-2.4-.7-3.6-.7h-8.7c-.2,0-.3,0-.5,0,0,0-.2.1-.2.2,0,.3,0,.6,0,.9v6.3h0Z"/>
  <path class="st3" d="M409.8,157.1c-.2,0-.4.2-.6.2-.5,0-1,0-1.5,0h-16.2c-.5,0-1,0-1.5,0-.3,0-.5.3-.5.6,0,.2,0,.5,0,.7v7.4c0,.3,0,.6,0,.9,0,0,.1.2.2.2.2,0,.3,0,.5,0h20.8c.5,0,1,0,1.5,0,.2,0,.3.2.3.3,0,.2,0,.4,0,.5v6.5c0,.2,0,.4,0,.5,0,.3-.3.5-.6.6-.2,0-.3,0-.5,0h-30.1c-2.1,0-2,.2-2-2v-42.1c0-1.4,0-1.5,1.3-1.5h30.3c.2,0,.3,0,.5,0,.2,0,.4.3.4.5,0,0,0,.1,0,.2v7.1c0,.1,0,.3,0,.3,0,.1-.2.3-.3.4-.1,0-.3,0-.5,0h-19.9c-.5,0-1,0-1.5,0-.3,0-.5.3-.5.6,0,.2,0,.4,0,.5v7.4c0,.3,0,.6,0,.9,0,0,.1.2.2.2,0,0,.2,0,.3,0,.5,0,1,0,1.5,0h16.5c.5,0,1,0,1.5,0,0,0,.2.1.2.2,0,0,0,.2,0,.3,0,2.4,0,4.8,0,7.3,0,.1,0,.2-.1.4h0Z"/>
  <path class="st3" d="M529,83.6c.2,0,.3.2.5.2.5,0,1,0,1.5,0h16.5c.5,0,1,0,1.5,0,.2,0,.3.2.4.3,0,0,0,.2,0,.4v6.9c0,.1,0,.2,0,.4,0,.2-.2.5-.4.5-.5,0-1,0-1.5,0h-16.3c-.6,0-1.1,0-1.7,0-.2,0-.5.2-.5.4,0,.2,0,.5,0,.7v7.6c0,.2,0,.5,0,.7,0,.2.2.3.3.4.6,0,1.1,0,1.7,0h18.5c.8,0,1.6,0,2.4,0,.2,0,.4.2.5.5,0,.2,0,.4,0,.5v6.5c0,.2,0,.5-.1.7,0,0-.1.2-.2.2,0,0-.2,0-.3,0-.5,0-.9,0-1.4,0h-29.1c-.5,0-1,0-1.5,0-.3,0-.5-.3-.5-.6,0-.5,0-1,0-1.5v-41.4c0-.5,0-1,0-1.5,0-.4.3-.6.7-.6.4,0,.8,0,1.2,0h29.6c.9,0,1,.2,1,1.2v6.2c0,.3,0,.6,0,.9,0,0-.1.2-.2.2,0,0-.2,0-.3,0-.5,0-1,0-1.5,0h-18.5c-.5,0-1,0-1.5,0-.3,0-.6.2-.6.5,0,.1,0,.2,0,.4v8c0,.2,0,.5,0,.7h0Z"/>
  <path class="st9" d="M434.8,79.9v-12.3c0-.5,0-1,0-1.5,0-.5.2-.7.6-.7.1,0,.2,0,.3,0h7.8c.2,0,.4,0,.5,0,.1,0,.3.2.3.4,0,.5,0,1,0,1.4v11.8c0,4.1,0,8.2,0,12.3,0,1,0,2.1.2,3.1.5,3.3,2.1,5.8,5,7.3,1.9.9,3.8,1.1,5.8.8.6,0,1.2-.3,1.8-.5,2.8-1,4.5-3.1,5.4-6.1.2-.9.4-1.8.4-2.7,0-.7,0-1.5,0-2.2v-23.8c0-.5,0-1.1,0-1.6,0,0,.1-.2.2-.3,0,0,.2,0,.3,0h8.3c.1,0,.2,0,.3,0,.1,0,.3.2.3.4,0,.2,0,.5,0,.7v25.2c0,1.8-.1,3.6-.5,5.4-1.4,7-5.4,11.5-11.9,13.5-2.9.9-5.8,1.1-8.8.8-1.5-.2-3-.4-4.5-.8-1.5-.5-3-1.1-4.4-2-3.8-2.5-6.2-6.1-7.3-10.7-.5-1.9-.7-3.8-.7-5.7v-12.3h0Z"/>
  <path class="st3" d="M393.6,88.1v-21.1c0-1.7,0-1.7,1.5-1.7h16.3c2.4,0,4.9.3,7.2,1,2.3.7,4.4,1.9,6.2,3.7,1.7,1.7,2.8,3.8,3.4,6.2.5,2.1.7,4.2.5,6.3-.1,1.4-.2,2.8-.6,4.1-1.3,4.7-4.1,8-8.4,9.8-1.4.6-2.8.9-4.3,1.2-1.4.2-2.8.3-4.2.3h-6.6c-.3,0-.7,0-1,0,0,0-.2.1-.2.2,0,.4,0,.8,0,1.3v9.4c0,.5,0,1,0,1.5,0,.2-.2.5-.4.5-.2,0-.5,0-.7,0h-7.5c-.2,0-.5,0-.7,0-.2,0-.3-.2-.3-.4,0-.5,0-1,0-1.5v-20.9h0ZM403.3,81.6v6.2c0,.4,0,.7,0,1.1,0,.1.2.3.3.3.3,0,.6,0,.8,0h6.8c.4,0,.9,0,1.4,0,1.1,0,2.1-.3,3.1-.8,2.1-1,3.3-2.7,3.6-5.1.2-1.2.2-2.4,0-3.6,0-.4-.1-.7-.2-1-.6-1.8-1.7-3.1-3.4-3.8-1.2-.5-2.5-.8-3.8-.8h-7.8c-.2,0-.3,0-.5,0-.1,0-.3.2-.3.4,0,.4,0,.8,0,1.3v6h0Z"/>
  <path class="st8" d="M229.5,161c.5,0,.7.4,1,.7,3,2.6,6.4,4.4,10.1,5.4,1.5.4,3.1.6,4.7.5,1.1,0,2.1-.3,3.1-.7.7-.3,1.3-.8,1.7-1.4,1-1.4.9-3.8-.4-5.2-.7-.8-1.6-1.4-2.6-1.7-1-.4-1.9-.8-2.9-1.1-1.8-.6-3.7-1.2-5.5-1.8-1.3-.4-2.6-1-3.8-1.5-1.8-.8-3.2-2-4.5-3.5-1-1.2-1.6-2.5-2-4-.6-2.3-.6-4.7,0-7,.7-2.9,2.3-5.1,4.5-6.8,1.7-1.3,3.6-2.1,5.6-2.6,2-.5,4.1-.8,6.2-.7,5.2,0,10.1,1.5,14.6,4.1.3.2.7.4,1,.7.2.1.2.4.2.7,0,0,0,.1,0,.2-1.1,2.5-2.2,4.9-3.3,7.4-.2.4-.3.4-.7.2-.2-.1-.5-.3-.7-.4-1.3-.8-2.7-1.5-4.2-2.1-1.6-.7-3.2-1.2-4.9-1.5-.9-.2-1.8-.3-2.7-.4-1.2,0-2.4,0-3.5.6-.4.2-.8.4-1.2.7-.6.5-.9,1.2-1,2-.2,1.8.5,3.2,1.9,4.1.8.5,1.6.9,2.5,1.2,1.6.7,3.3,1.2,5,1.8,2,.6,4,1.4,5.9,2.2,1.6.7,3.1,1.8,4.3,3.1,1.6,1.7,2.5,3.7,2.8,6.1.2,1.9.2,3.7-.2,5.6-.6,2.5-1.8,4.5-3.5,6.3-1.5,1.5-3.3,2.5-5.3,3.2-2,.7-4.1,1.1-6.2,1.2-.4,0-.9,0-1.4,0-3.9,0-7.7-.8-11.3-2.4-2.4-1-4.7-2.4-6.7-4.2-.1-.1-.3-.2-.4-.3-.3-.3-.3-.5-.2-.8,1.1-2.4,2.2-4.8,3.3-7.2,0-.2.3-.4.4-.5h0Z"/>
  <path class="st8" d="M280.3,72.3c-.2.6-.6,1-1,1.5-1.5,1.8-2.8,3.8-4.4,5.6,0,0-.1,0-.2,0-.5-.3-.8-.8-1.2-1.2-1.7-1.7-3.6-3-5.7-3.8-6.4-2.3-13.1,1-15.7,7.1-.8,1.8-1.2,3.8-1.3,5.8,0,1.9.1,3.8.7,5.5,1.5,4.4,4.3,7.4,8.6,8.8,2.8.9,5.5.7,8.2-.4,1.9-.7,3.6-1.8,5.1-3.1.4-.4.9-.8,1.3-1.1.2.1.4.2.5.3,1.7,1.9,3.3,3.8,5,5.7.2.3.2.5,0,.8-.3.3-.6.6-.9.9-2.7,2.6-5.9,4.5-9.4,5.8-2.2.8-4.5,1.2-6.9,1.2-5.1,0-9.8-1.6-13.9-5.1-4.2-3.6-6.8-8.2-7.8-13.8-.5-2.6-.5-5.2-.2-7.8.8-6.6,3.7-11.8,8.8-15.7,2.9-2.3,6.2-3.7,9.8-4.2,7-1.1,13.4.8,19,5.5.6.5,1.2,1,1.7,1.8h0Z"/>
  <path class="st8" d="M348,162c.1,0,.2,0,.3.2,1.7,1.9,3.3,3.8,5,5.7,0,0,0,0,.1.1.1.2.1.5,0,.7-.7.7-1.5,1.5-2.3,2.2-3.3,2.7-6.9,4.6-11,5.3-1.7.3-3.4.5-5.1.3-1.6-.2-3.3-.4-4.9-.8-8.2-2.4-14.1-9.4-15.6-17.9-.7-4.4-.6-8.7.8-12.9,1.7-5,4.8-8.9,9-11.7,2.5-1.7,5.3-2.8,8.2-3.3,7.2-1.2,13.7.7,19.4,5.6.4.4.8.8,1.2,1.2.1.1.2.3.2.5-.8,1.3-4.4,6-5.4,7.1-.1,0-.3-.1-.4-.2-.4-.4-.7-.8-1.1-1.2-1.8-1.8-3.8-3-6.1-3.8-5.2-1.7-11.2.5-14.3,5.6-1.3,2.2-2.1,4.6-2.1,7.2,0,2.4.2,4.7,1.1,6.9,1.7,4,4.5,6.6,8.4,7.8,2.9.9,5.7.6,8.5-.6,1.7-.8,3.3-1.8,4.8-3.1.4-.3.7-.8,1.2-1Z"/>
  <path class="st9" d="M484.7,130.4c.3,0,.6,0,.8,0h7.7c.2,0,.4,0,.7,0,.1,0,.3.3.2.4-.2.4-.3.8-.5,1.1-2,4-4.1,8.1-6.1,12.1-2.6,5.1-5.2,10.2-7.7,15.3-.1.3-.2.5-.4.8-.4.7-.5,1.4-.5,2.2,0,3.8,0,7.6,0,11.4s0,.9,0,1.3c0,.5-.2.7-.8.7h-7.8c-.2,0-.3,0-.5,0-.2,0-.5-.2-.5-.4,0-.5,0-1,0-1.4v-10.5c0-.4,0-.9,0-1.3,0-.5-.1-.9-.3-1.4-1.4-2.8-2.9-5.6-4.3-8.4-3.5-6.8-6.9-13.6-10.4-20.4-.2-.4-.4-.8-.5-1.1,0-.2,0-.4.2-.4.2,0,.3,0,.5,0h7.8c.2,0,.3,0,.5,0,.2,0,.4.2.6.4.3.5.5.9.8,1.4,3,5.6,5.9,11.1,8.9,16.7.3.5.5.9.8,1.4,0,.1.4.1.4,0,.2-.4.4-.7.6-1.1,2.5-4.7,4.9-9.4,7.4-14.1.7-1.3,1.4-2.6,2.1-4,.1-.2.3-.4.4-.7h0Z"/>
  <path class="st9" d="M495.8,65.3h15.7c.5,0,1,0,1.5,0,.2,0,.5.2.5.4,0,.2,0,.4,0,.5v6.9c0,.2,0,.4,0,.5,0,0-.1.2-.2.2-.4,0-.8,0-1.2,0h-9.5c-.5,0-.9,0-1.4,0-.4,0-.6.3-.6.7,0,.2,0,.5,0,.7v33c0,.6,0,1.2,0,1.8,0,.2-.2.4-.5.5-.2,0-.5,0-.7,0h-7.3c-.3,0-.6,0-.8,0,0,0-.2-.1-.2-.2,0-.2-.1-.3-.1-.5,0-.5,0-1.1,0-1.6v-31.9c0-.6,0-1.2,0-1.8,0-.2-.2-.5-.4-.5-.5,0-1,0-1.5,0h-9.4c-1.7,0-1.6,0-1.6-1.7v-5.6c0-.3,0-.6,0-.9,0-.3.3-.5.6-.6.5,0,.9,0,1.4,0h16,0Z"/>
  <path class="st2" d="M434.8,130.3h17c.6,0,.7.3.7.8v7.1c0,.1,0,.2,0,.4,0,.2-.2.4-.5.4-.5,0-.9,0-1.4,0h-9.5c-.4,0-.8,0-1.2,0-.2,0-.3.1-.4.3,0,.2,0,.3,0,.5,0,.5,0,1.1,0,1.6v31.9c0,.6,0,1.2,0,1.8,0,.2-.2.5-.4.5-.2,0-.3,0-.5,0h-7.8c-.2,0-.3,0-.5,0-.2,0-.3-.2-.3-.4,0-.2,0-.5,0-.7v-33.4c0-.6,0-1.2,0-1.8,0-.2-.2-.4-.5-.5-.5,0-1,0-1.5,0h-9.5c-.3,0-.7,0-1,0-.2,0-.3-.2-.3-.3,0-.2,0-.4,0-.5v-6.7c0-.2,0-.4,0-.5,0-.2.2-.5.4-.5.5,0,1,0,1.5,0h16Z"/>
  <path class="st8" d="M275.2,31.9c0-4.4,0-8.4-.1-12.4,0-1.3-.1-2.5-.2-3.8,0-.2,0-.4,0-.5,0-.1.2-.3.3-.4.2,0,.4,0,.7,0h18.2c.2,0,.5,0,.7,0,.1,0,.2.2.3.4,0,0,0,.2,0,.3,0,1.8-.1,3.5-.2,5.3,0,.2,0,.4-.1.5,0,.1-.2.3-.4.3-.4,0-.8,0-1.2,0h-7.2c-.4,0-.8,0-1.2,0-.3,0-.5.3-.5.6,0,.2,0,.5,0,.7v3.6c0,.2,0,.4,0,.5,0,.2.2.5.4.5.9,0,1.8,0,2.7,0,1.9,0,3.7,0,5.6-.1.2,0,.4,0,.7,0,.2,0,.4.3.4.5,0,.2,0,.4,0,.5,0,.7,0,1.5-.1,2.2,0,1-.1,1.9-.2,2.9,0,.3-.3.6-.5.6-.5,0-.9,0-1.4,0h-6.6c-.2,0-.5,0-.7,0,0,0-.2.1-.3.2,0,0,0,.1,0,.2-.2,2.6,0,5.8.2,5.9,1.7.3,3.4,0,5.1,0,1.4,0,2.8-.1,4.2-.2.5,0,.9,0,1.4,0s.6.3.6.7c-.1,2-.2,4-.4,6,0,.1,0,.2,0,.3,0,.2-.3.5-.5.5-.4,0-.8,0-1.2,0-2.3,0-4.7,0-7,0-3.6,0-7.1,0-10.7,0-1.2,0-1.2,0-1.2-1.3,0-5.1,0-10.3.1-15h0Z"/>
  <path class="st8" d="M301,32.7c0-4.6,0-8,0-11.3,0-1.6-.1-3.1-.2-4.7,0-.4,0-.7,0-1.1s.3-.7.6-.7c.2,0,.5,0,.7,0h17.9c1.2,0,1.2,0,1.2,1.3,0,1.4,0,2.8-.2,4.2,0,.4,0,.7-.2,1.1,0,.1-.2.3-.3.3-.4,0-.8,0-1.2,0h-7c-.5,0-.9,0-1.4,0-.2,0-.4.2-.5.4,0,.2,0,.4,0,.5v4c0,.2,0,.4,0,.5,0,.2.2.4.5.4.8,0,1.6,0,2.4,0,2,0,4-.1,6-.2.2,0,.5,0,.7,0,.1,0,.3.2.3.4,0,0,0,.2,0,.3-.1,1.8-.2,3.6-.3,5.4,0,.3-.3.6-.6.6-.4,0-.9,0-1.4,0h-6.5c-.3,0-.6,0-.8,0,0,0-.2.2-.2.2,0,0,0,.1,0,.2,0,1.8,0,3.6,0,5.4s.2.5.5.6c0,0,.1,0,.2,0,2.3,0,4.5,0,6.8-.2,1.1,0,2.3,0,3.4-.1.2,0,.6.3.6.6v.2c0,1.6-.2,3.3-.3,4.9,0,.5-.1,1-.2,1.4,0,.2-.3.4-.5.4-.3,0-.7,0-1,0-1.5,0-3.1,0-4.6,0-4.2,0-8.4,0-12.6,0-.2,0-.5,0-.7,0-1.1,0-1.2-.1-1.2-1.4v-.4c0-5,0-10,.1-13.9h0Z"/>
  <path class="st8" d="M326.8,31.5v-8c0-2.1,0-4.2-.2-6.3,0-.6,0-1.2,0-1.8s.2-.5.4-.5c.3,0,.6,0,.8,0h17.9c.3,0,.6,0,.8,0,.1,0,.2.2.3.3,0,0,0,.2,0,.3,0,1.9-.1,3.7-.3,5.6,0,.3-.3.5-.6.5-.4,0-.9,0-1.4,0h-7.3c-.3,0-.6,0-.8,0-.1,0-.2.2-.3.4,0,0,0,.2,0,.3v4.5c0,0,0,.1,0,.2,0,.3.3.5.6.5,1,0,1.9,0,2.9,0,1.8,0,3.5,0,5.3-.1.2,0,.4,0,.7,0,.2,0,.4.3.5.5,0,.2,0,.4,0,.5,0,1.4-.2,2.8-.2,4.2,0,.3,0,.6,0,.9,0,.4-.3.7-.7.7-.5,0-.9,0-1.4,0h-6.3c-.3,0-.6,0-.8,0-.1,0-.3.1-.3.4,0,.5,0,1.1,0,1.6,0,1.3,0,2.7,0,4,0,.2.2.4.4.4.4,0,.8,0,1.2,0,2.3,0,4.5,0,6.8-.2.6,0,1.1,0,1.7,0,1.1,0,1.3.1,1.2,1.3-.1,1.8-.2,3.6-.4,5.4,0,.6-.3.8-.9.8-.5,0-.9,0-1.4,0-5.7,0-11.3,0-17,0-.3,0-.6,0-.8,0-.3,0-.5-.3-.5-.6,0-.1,0-.2,0-.4,0-5.3.1-10.5.2-15.8h0Z"/>
  <path class="st6" d="M360,152.9v-20.5c0-.5,0-1.1,0-1.6,0-.2.2-.4.4-.5,0,0,.1,0,.2,0h8.3c.1,0,.2,0,.3,0,.1,0,.3.2.3.4,0,.2,0,.5,0,.7v42.1c0,.6,0,1.2,0,1.8,0,.2-.2.5-.4.5-.2,0-.3,0-.5,0h-7.7c-.2,0-.5,0-.7,0-.1,0-.3-.2-.3-.4,0-.3,0-.7,0-1.1v-21.4h0Z"/>
  <path class="st9" d="M268.2,29.8c0,5.3,0,9,.1,12.7,0,1.3,0,2.5.1,3.8,0,.4,0,.8,0,1.3s-.2.6-.5.6c-.1,0-.2,0-.3,0-2.8,0-5.6,0-8.3,0-.2,0-.3,0-.5,0-.1,0-.3-.2-.3-.4,0-.3,0-.7,0-1.1,0-5.3,0-10.5.2-15.8,0-2.7,0-5.4,0-8.1,0-2.2-.1-4.5-.2-6.7,0-.3,0-.6,0-.9,0-.1.2-.3.3-.3.2,0,.5,0,.7,0,2.7,0,5.3,0,8,0,.2,0,.4,0,.5,0,.1,0,.3.2.3.3,0,.5,0,1.1,0,1.6,0,4.9-.1,9.8-.1,13Z"/>
  <path class="st7" d="M58.7,199c.8-.1,1.7,0,2.7,0,.2,0,.4.3.4.5,0,.3,0,.6,0,.9,0,6.6,0,13.2,0,19.8v.4c0,.8-.2.9-.9,1-.8,0-1.6,0-2.4,0-.2,0-.5-.2-.5-.4,0-.5,0-1.1,0-1.6v-10.2c0-.5,0-1,0-1.5,0,0-.1-.2-.2-.2,0,0-.1,0-.2,0-.2.3-.5.7-.7,1-1.5,2.7-3.1,5.5-4.6,8.3-.3.6-.7,1.1-1,1.7-.1.2-.3.3-.6.3-.2,0-.3,0-.5,0-.6,0-1.1-.2-1.4-.8-1.1-1.9-2.2-3.8-3.3-5.7-.9-1.6-1.8-3.2-2.8-4.8,0-.1-.2-.2-.3,0,0,0,0,0,0,.1,0,.4,0,.7,0,1.1v11.1c0,.4,0,.7,0,1.1,0,.2-.2.5-.4.5h-2.9c-.2,0-.3-.2-.4-.3,0-.3,0-.6,0-.9v-20c0-.2,0-.5,0-.7,0-.3.2-.5.6-.5.7,0,1.4,0,2,0,.4,0,.7.2.8.5,1,1.8,2,3.5,3,5.3,1.4,2.5,2.9,5.1,4.3,7.6.2.3.4.6.6.9.1.2.5.2.6,0,.3-.6.7-1.1,1-1.7,2-3.7,4.1-7.4,6.1-11.1.3-.5.5-1.1,1-1.5h0Z"/>
  <path class="st10" d="M348.9,209.6c0,.1,0,.3.1.4.4.3.8.5,1.1.8,1.1.9,1.8,2,1.9,3.5,0,.6,0,1.2,0,1.8-.1,1.9-1,3.3-2.5,4.2-1,.7-2.2,1-3.4,1.1-.6,0-1.2,0-1.9,0h-9.7c-.3,0-.6,0-.8,0-.2,0-.3-.2-.3-.4,0-.2,0-.5,0-.7v-20.1c0-.2,0-.5,0-.7,0-.2.2-.4.5-.4.2,0,.3,0,.5,0,3.1,0,6.1,0,9.2,0,1.2,0,2.5.2,3.7.6.8.3,1.5.7,2.1,1.2,1.1.9,1.6,2.1,1.7,3.6,0,1.2,0,2.3-.6,3.3-.2.4-.5.8-.8,1.1-.2.3-.5.5-.7.7h0ZM341.3,218.2h0c1.1,0,2.3,0,3.4,0s1.2-.2,1.8-.4c1.1-.5,1.7-1.4,1.7-2.7s-.5-2.2-1.6-2.7c-.3-.1-.6-.3-1-.3-.6-.1-1.2-.2-1.9-.3-1.9,0-3.8,0-5.8,0-.4,0-.7.3-.7.6v5.2c0,.3.2.6.5.6h3.4ZM340.8,208.4c.6,0,1.2,0,1.9,0,.5,0,1,0,1.5,0,.5,0,1-.2,1.5-.5.9-.5,1.4-1.4,1.4-2.5s-.5-2-1.4-2.5c-.3-.2-.6-.3-1-.4-.7-.1-1.4-.3-2.2-.3-1.4,0-2.7,0-4.1,0s-.4,0-.7,0c-.2,0-.4.3-.4.5,0,.7,0,1.3,0,2,0,1.1-.2,2.3.2,3.4,0,.3.1.3,3.3.3h0Z"/>
  <path class="st6" d="M517,204.4c.3.5.1,1,.3,1.5,0,0,.2.2.3.1.2,0,.3-.2.4-.3,1.1-.9,2.4-1.4,3.7-1.6,3-.3,6.2,1,7.9,4.1.9,1.7,1.2,3.6,1,5.6-.1,1.3-.4,2.6-1.1,3.8-1.4,2.5-3.6,3.8-6.3,4.1-1.9.2-3.6-.3-5.1-1.5,0,0,0,0-.1-.1-.1,0-.3-.2-.5,0-.1.1-.1.3-.2.5,0,.4,0,.8,0,1.3v4.4c0,.4,0,.7,0,1.1,0,.2-.3.4-.5.5-.1,0-.2,0-.3,0h-.8c-2.3,0-2.1.2-2.1-2.2v-19c0-.5,0-1.1,0-1.6,0-.3.2-.5.4-.5,1,0,2,0,3,0h0ZM526.8,213c0-.6,0-1.1-.1-1.5-.3-1.7-1.2-2.9-2.8-3.6-.7-.3-1.4-.4-2.2-.4-1.7,0-3,.9-3.9,2.5-.8,1.7-.9,3.5-.2,5.2.8,1.9,2.2,2.8,4.1,2.9,2.5,0,4-1.5,4.6-3.5.2-.6.2-1.3.3-1.8Z"/>
  <path class="st2" d="M267.6,209.6v10c0,.5,0,1,0,1.5,0,.1-.2.3-.3.3-1,.1-1.9.1-2.9,0,0,0-.2-.1-.2-.2,0-.3-.1-.7-.2-1,0-.1-.3-.2-.4-.2-.2.2-.5.3-.7.5-1.1.8-2.4,1.2-3.7,1.2-1.1,0-2.3,0-3.3-.5-3-1.2-4.7-3.5-5.2-6.8-.2-1.4-.2-2.9.2-4.3.9-3.2,3-5.2,6.1-5.8.8-.2,1.7-.3,2.5-.2,1.3.2,2.5.6,3.6,1.5.1.1.3.2.4.3,0,0,.2,0,.2-.2,0-.2,0-.5,0-.7v-5.3c0-.5,0-1,0-1.5,0-.4.2-.6.7-.6.3,0,.6,0,.8,0,2.6,0,2.3-.3,2.3,2.4,0,3.2,0,6.4,0,9.6h0ZM263.9,212.9c0,0,0-.4,0-.7-.1-2.2-1.4-3.9-3.4-4.5-2-.6-4,0-5.3,1.9-.8,1.2-1,2.6-.9,4,.3,2.3,1.6,4.4,4.3,4.6,1.8.2,3.3-.5,4.4-2.2.5-.9.8-1.8.8-3.1h0Z"/>
  <path class="st1" d="M212.9,203.8c-.3-.1-.6-.2-.8-.3-1.1-.6-2.2-.9-3.4-1.1-1.3-.2-2.6-.2-3.9.2-.4.1-.8.3-1.2.6-.4.3-.7.7-.8,1.1-.3.8-.3,2,.6,2.8.6.5,1.3.8,2,1,.9.3,1.9.5,2.8.7.8.2,1.5.4,2.3.7.8.3,1.5.6,2.2,1,1.9,1.2,2.6,3.1,2.4,5.4-.2,2.1-1.2,3.6-2.9,4.6-1.2.7-2.5,1.2-3.9,1.3-1.2,0-2.4,0-3.6,0-2-.2-3.9-.8-5.6-1.9-.1,0-.2-.1-.3-.2-.4-.3-.5-.6-.3-1.1.3-.7.6-1.4.9-2.1,0,0,.2-.2.3-.3.1,0,.3,0,.4.1.6.3,1.2.7,1.8,1,2.1,1,4.3,1.3,6.7.9.7-.1,1.3-.4,1.9-.9.7-.6,1-1.7.7-2.6-.1-.3-.3-.6-.6-.9-.4-.4-.8-.7-1.3-.8-.7-.2-1.4-.5-2.1-.7-1.3-.3-2.5-.6-3.8-1.1-.7-.3-1.5-.6-2.2-1-1.8-1.1-2.5-2.9-2.5-5,0-2.2,1.1-3.9,2.8-5.1.8-.5,1.6-.9,2.5-1.1,3.2-.7,6.3-.4,9.3,1.1.2,0,.4.2.6.4.1.1.2.3.2.5-.3,1-.6,1.9-1.1,2.9h0Z"/>
  <path class="st1" d="M423.8,209.6v-10c0-.5,0-1,0-1.4,0-.3.2-.5.4-.5h2.9c.2,0,.4.2.5.5,0,.4,0,.7,0,1.1v5.4c0,.3,0,.6,0,.9,0,.1.3.2.4.2.3-.2.7-.5,1-.7,2.1-1.2,4.3-1.3,6.6-.5,1.8.7,2.9,2,3.5,3.9.2.7.4,1.4.4,2.1s0,1.1,0,1.6v7.3c0,.5,0,1,0,1.5,0,.2-.2.5-.4.5h-2.9c-.2,0-.4-.3-.4-.5,0-.5,0-1.1,0-1.6v-7.1c0-.8,0-1.6-.3-2.3-.4-1.1-1.1-1.7-2.2-2.1-1.2-.4-2.4-.2-3.5.3-1.3.6-2,1.8-2.2,3.3,0,.6,0,1.2,0,1.8v6.7c0,.4,0,.7,0,1.1,0,.2-.1.3-.3.3-1,.1-2,.1-3,0-.2,0-.3-.2-.3-.4,0-.5,0-1,0-1.5v-10h0Z"/>
  <path class="st1" d="M478.4,205.8c.2,0,.3,0,.4,0,.3-.2.6-.4.9-.6,1.6-1,3.4-1.4,5.2-1.1.6,0,1.1.2,1.6.4,2,.7,3.2,2.3,3.7,4.4.2.8.3,1.7.3,2.5,0,3,0,6,0,9.1v.2c0,.4-.2.7-.6.7h-2.7c-.2,0-.5-.3-.5-.4,0-.5,0-1,0-1.5v-6.7c0-.7,0-1.5-.1-2.2-.2-1.4-1-2.4-2.3-2.8-1.3-.4-2.5-.2-3.6.4-1,.5-1.6,1.4-1.9,2.5-.2.8-.3,1.5-.3,2.3,0,2.1,0,4.2,0,6.3s0,1,0,1.5c0,.4-.2.6-.5.6-.9,0-1.8,0-2.7,0-.3,0-.5-.3-.5-.6,0-.4,0-.9,0-1.3v-20.1c0-.5,0-1,0-1.4,0,0,.1-.2.2-.3,0,0,.1,0,.2,0,1,0,2-.2,3,0,0,0,.1,0,.2.1.2,1.3,0,2.6,0,3.9,0,1.3,0,2.7,0,4h0Z"/>
  <path class="st7" d="M471.1,202.4c0,.2-.2.3-.3.5-.7.6-1.2,1.4-2,1.9,0,0-.1,0-.2,0-.2-.2-.5-.4-.8-.6-1.4-1.2-3.1-1.8-4.9-1.7-.9,0-1.8.1-2.7.5-2.8,1.1-4.6,3.9-4.7,6.9,0,1.8.3,3.5,1.2,5,1.3,2,3.1,3.1,5.4,3.4,2.2.3,4.2-.4,5.8-1.9.1-.1.3-.2.4-.4,0,0,.2-.1.3-.2.1,0,.2,0,.3.1.7.7,1.3,1.3,2,2,.2.2.2.4,0,.6-1,1.2-2.2,2-3.6,2.6-1.2.5-2.4.8-3.6.8-1.4,0-2.8,0-4.2-.4-3.8-1.2-6.3-3.7-7.5-7.7-.6-2.2-.7-4.5,0-6.8.9-3.3,2.9-5.7,5.9-7.1,3.1-1.5,6.4-1.5,9.6-.2,1.3.5,2.4,1.3,3.4,2.4.1.1.2.3.3.4h0Z"/>
  <path class="st1" d="M286.6,218.9c-.2.3-.4.5-.6.7-1.2,1.2-2.7,1.8-4.3,2-1.9.3-3.7.1-5.5-.7-2.4-1.1-4-2.9-4.7-5.6-.5-2-.4-4.1.3-6,1.1-2.8,3.2-4.5,6-5.1,1.6-.3,3.2-.2,4.7.4,3.1,1.2,4.7,3.6,5.1,7,0,.7,0,1.4,0,2.2,0,0-.1.2-.2.3-.3,0-.7,0-1,0h-9.3c-.5,0-1,0-1.5,0-.2,0-.4.3-.4.5.5,1.9,1.8,3,3.6,3.4.6.1,1.2.2,1.9.2,1.2,0,2.3-.4,3.3-1.2.2-.1.4-.3.6-.4,0,0,.2,0,.3,0,.7.6,1.2,1.4,1.8,2.2h0ZM283.8,211.4c0,0,0-.1,0-.2,0-.1,0-.2,0-.3-.3-1.7-1.3-2.8-2.8-3.3-.8-.3-1.6-.3-2.5-.1-1.9.4-3,1.5-3.5,3.4,0,.2,0,.3,0,.5,1.4.2,7.4.1,8.6,0Z"/>
  <path class="st1" d="M558.5,216.6c.2,0,.3.2.4.3.5.5.9,1.1,1.3,1.6.3.3.2.6-.1.9-1.4,1.4-3.1,2-4.9,2.2-1.3.1-2.6,0-3.9-.3-2.8-.8-4.7-2.5-5.7-5.4-.7-2.2-.7-4.4.2-6.6,1.1-2.8,3.1-4.5,6-5.1,1.6-.3,3.2-.3,4.7.3,2.7,1,4.4,3.1,5,6.1.2.9.3,1.9.2,2.9,0,.2-.2.5-.4.5-.5,0-.9,0-1.4,0h-9.5c-.3,0-.7,0-1,0,0,0-.2.2-.2.3,0,.1,0,.3,0,.4.5,1.7,1.7,2.7,3.2,3.2,1.2.3,2.4.3,3.5,0,.5-.2,1-.5,1.5-.7.3-.2.7-.5,1-.7h0ZM557.9,211.4c0-.2,0-.3,0-.5-.1-.4-.2-.8-.4-1.2-.6-1.2-1.6-1.9-2.9-2.2-.9-.2-1.7-.2-2.5,0-1.5.5-2.5,1.5-3,3.2,0,.2,0,.5.1.7,1.3.1,7.3.1,8.6,0Z"/>
  <path class="st1" d="M66.5,206.4c.1-.2.2-.4.3-.4.5-.3,1.1-.7,1.6-.9,2.4-1,4.8-1.3,7.3-.6,2.1.5,3.7,1.8,4.4,4.1.3.9.4,1.9.4,2.9,0,2,0,4,0,6v3.1c0,.2,0,.4,0,.5,0,.2-.2.4-.5.4-.7,0-1.5,0-2.2,0s-.9-.2-.9-.9c0,0,0-.1,0-.2,0-.2-.2-.3-.4-.2-.1.1-.3.2-.4.3-.9.8-1.9,1.1-3,1.2-1.2.2-2.5.1-3.7-.3-1.5-.5-2.7-1.5-3.3-3.2-.8-2.3,0-4.8,2.1-5.9.8-.4,1.7-.7,2.6-.8,1.2,0,2.5,0,3.7,0,.6,0,1.1,0,1.7,0,.3,0,.5-.3.5-.7-.2-2-1.4-3-2.9-3.2-1.8-.2-3.5,0-5.1,1-.2.1-.4.3-.6.3-.1,0-.4,0-.4-.1-.3-.4-.5-.8-.7-1.3-.2-.4-.3-.8-.5-1.1h0ZM74.4,214.2h0c-.7,0-1.4,0-2,0s-1,.2-1.5.3c-.3.1-.6.4-.8.7-.7,1-.6,2.5.8,3.2,1.5.8,3.8.5,5.1-.8.6-.6,1.1-1.4,1-2.4,0-.2,0-.4,0-.5,0-.3-.2-.5-.4-.5h-2Z"/>
  <path class="st6" d="M128.9,221.8c-2.5,0-4.7-.9-6.5-2.8-1.7-1.9-2.3-4.1-2.2-6.6,0-1.1.3-2.3.8-3.3,1.1-2.4,2.9-3.9,5.2-4.5,2-.6,3.9-.5,5.8.2,2.6,1,5.2,3.6,5.3,7.9,0,1.2-.1,2.4-.5,3.6-1,2.8-2.8,4.4-5.4,5.3-.4.1-.9.2-1.3.3s-.9,0-1.3,0h0ZM128.9,207.6c-2.6,0-4.7,2-4.8,4.8,0,.5,0,1.1,0,1.6.2,1.7,1.5,4,4,4.2.5,0,1,0,1.5,0,1.2-.1,2.2-.7,2.8-1.8,1.3-2,1.4-4.2.4-6.3-.8-1.7-2.3-2.4-4.1-2.5Z"/>
  <path class="st6" d="M173.8,209c0,0-.1,0-.1,0-.3-.5-.6-1-.9-1.5-.2-.3-.3-.7-.4-1,.2-.2.3-.4.5-.5,1.3-.8,2.7-1.3,4.1-1.5,1.4-.2,2.8-.3,4.2,0,.6.1,1.2.3,1.8.6,1.7.8,2.7,2.1,3.1,4,.2.8.3,1.5.3,2.3v9.3c0,.2,0,.4,0,.5,0,.2-.1.3-.3.3-.9,0-1.8,0-2.7,0s-.4-.2-.5-.6c0-.2,0-.5,0-.8-.2,0-.4,0-.5.2-.8.8-1.8,1.2-2.9,1.4-1.4.3-2.8.2-4.2-.3-.8-.3-1.5-.8-2.1-1.4-1.8-1.9-1.7-6.1,1.2-7.6.8-.4,1.7-.7,2.6-.8,1.3,0,2.6,0,3.9,0,.5,0,1,0,1.5,0,.2,0,.4-.3.4-.5-.1-2-1.1-3.1-2.8-3.3-1.7-.3-3.4,0-5,.8-.3.2-.6.5-1.1.5h0ZM182.7,215.1v-.4c0-.3-.2-.6-.5-.6-1.3,0-2.7,0-4.1,0-.5,0-1,.2-1.5.4-.5.2-.8.6-1,1.2-.3,1.1,0,2.3,1.1,2.7,1.8.8,3.4.5,4.9-.8.7-.6,1.2-1.5,1-2.5h0Z"/>
  <path class="st6" d="M377.2,220c-.2,0-.4,0-.5.2-2.1,1.8-4.5,1.8-7,1.1-.5-.2-1.1-.4-1.5-.8-1.2-.9-2-2.2-2-3.8,0-.5,0-1.1.2-1.6.3-1.2.9-2.1,1.9-2.6.9-.5,1.9-.9,2.9-.9,1.3,0,2.6,0,3.9,0,.5,0,1,0,1.5,0,.2,0,.4-.3.4-.5-.1-1.9-1.2-3.1-3-3.3-1.7-.2-3.4,0-4.9.9-.3.2-.6.4-1,.4-.5-.7-.9-1.6-1.3-2.5,0-.2,0-.4.2-.5.4-.3.8-.6,1.3-.8,2.5-1.2,5.1-1.4,7.8-.8.6.1,1.2.4,1.7.7,1.3.8,2.2,1.9,2.6,3.5.2.8.4,1.5.4,2.3v9.8c0,.1,0,.3,0,.3,0,.1-.2.3-.4.3-.9,0-1.8,0-2.7,0s-.4-.2-.5-.4c0-.3,0-.6-.1-.9h0ZM374.6,214.1h-1.9c-.5,0-1,.2-1.5.3-.3.1-.6.4-.8.6-.5.6-.6,2.2.3,2.9.2.2.5.3.7.4,1.5.6,3,.4,4.4-.6,1-.7,1.5-1.6,1.4-2.9,0-.7-.1-.9-.8-.9h-1.9,0Z"/>
  <path class="st2" d="M496.1,209.1c-.6-.9-1-1.8-1.4-2.6,0-.4.2-.5.4-.7.9-.6,1.9-1,3-1.3,2-.5,3.9-.6,5.9-.2.5.1,1,.3,1.4.5,1.9.9,2.9,2.6,3.2,4.8,0,.4,0,.8,0,1.3v9.6c0,.2,0,.4,0,.5,0,.2-.2.3-.3.3-.7,0-1.4,0-2,0-1.2,0-1,0-1.1-1.1,0-.3-.3-.4-.5-.3,0,0-.2.1-.3.2-.8.8-1.7,1.1-2.8,1.3-1.4.3-2.8.2-4.2-.3-.7-.3-1.3-.6-1.9-1.2-2.3-2.2-1.9-6.4.9-7.8.8-.4,1.7-.7,2.6-.8,1.1,0,2.3,0,3.4,0,.7,0,1.4,0,2,0,.2,0,.4-.3.4-.5,0-1.8-1-3.1-2.7-3.4-1.7-.3-3.4,0-5,.8-.3.2-.7.4-1.1.7h0ZM504.9,214.3c-.2,0-.4-.2-.5-.2-1.3,0-2.6,0-3.9,0s-.9.1-1.3.3c-.8.3-1.3,1-1.3,1.9,0,.9.4,1.6,1.1,2,1.9,1,4.1.3,5.2-.9.5-.6.9-1.2.8-2.1,0-.3,0-.7,0-1.1h0Z"/>
  <path class="st4" d="M389.6,205.9c.3,0,.4-.2.6-.3,2.1-1.6,4.5-2,7-1.3,2.3.7,3.7,2.4,4.3,4.9.2.8.2,1.6.2,2.3,0,3,0,5.9,0,8.9,0,.2,0,.4,0,.5,0,.2-.2.3-.3.3-1,0-2,0-3,0-.2,0-.3-.1-.3-.3,0-.4,0-.7,0-1.1v-7.3c0-.7,0-1.3-.1-2-.2-1.1-.7-2.1-1.6-2.6-.8-.5-1.7-.6-2.6-.5-.3,0-.7.2-1,.3-1.3.4-2.1,1.3-2.6,2.7-.2.8-.3,1.5-.3,2.3,0,2.2,0,4.4,0,6.5s0,1,0,1.5c0,.3-.2.6-.5.6h-2.7c-.2,0-.5-.2-.5-.4,0-.3,0-.6,0-.9v-14.3c0-.4,0-.7,0-1.1,0-.2.2-.3.3-.3,1,0,1.9,0,2.9,0,.1,0,.3.2.3.4,0,.4,0,.8.2,1.2h0Z"/>
  <path class="st7" d="M89,204.5c0,.4,0,.9.1,1.4.1,0,.3,0,.4,0,.3-.2.6-.4.8-.6,1.5-1,3.2-1.3,4.9-1.2.6,0,1.2.2,1.8.4,2.1.7,3.4,2.3,4,4.6.2.8.3,1.7.3,2.5,0,2.9,0,5.8,0,8.7s0,.4,0,.5c0,.3-.2.6-.5.6-.6,0-1.1,0-1.7,0-1.6,0-1.6,0-1.6-1.7,0-2.3,0-4.6,0-6.9,0-.7,0-1.5-.1-2.2-.2-1.5-1-2.5-2.4-2.9-1.3-.4-2.5-.2-3.6.5-.9.5-1.5,1.3-1.8,2.3-.3.8-.3,1.6-.3,2.5,0,2.3,0,4.6,0,6.9s0,.7,0,1.1c0,0-.1.2-.2.3-.3,0-.6,0-.8,0-3.1,0-2.6.5-2.6-2.7,0-4.1,0-8.2,0-12.3s0-1.1,0-1.6c0-.1.2-.3.3-.4,1,0,2-.2,3,0,0,0,0,0,.2.1h0Z"/>
  <path class="st3" d="M246.9,213v7.1c0,.4,0,.7,0,1.1,0,0-.2.2-.2.2-1,0-1.9,0-2.9,0-.2,0-.3-.2-.3-.4,0-.4,0-.7,0-1.1,0,0-.2-.2-.3-.1-.3.2-.6.4-.8.6-2.5,1.7-5.1,1.7-7.8.4-1.2-.6-2.1-1.7-2.6-3-.4-.9-.6-1.8-.6-2.8,0-.4,0-.9,0-1.3v-7.8c0-.4,0-.7,0-1.1,0-.3.2-.5.4-.5,1,0,2,0,3.1,0,0,0,.2.1.2.2,0,.4,0,.7,0,1.1,0,2.4,0,4.8,0,7.3,0,.8,0,1.6.2,2.3.3,1.7,1.6,2.7,3.1,2.8.7,0,1.5,0,2.2-.3,1.1-.4,1.8-1.2,2.2-2.3.2-.5.3-1,.4-1.6,0-.6,0-1.2,0-1.8v-6.3c0-.4,0-.7,0-1.1,0,0,.1-.3.2-.3,1.1-.2,2.1-.1,3.2,0,0,0,.2.2.2.2,0,.4,0,.7,0,1.1v7.3h0Z"/>
  <path class="st3" d="M156.6,213v7.1c0,.4,0,.7,0,1.1,0,0-.1.2-.2.2-.4,0-.8,0-1.2,0-.5,0-1,0-1.5,0-.3,0-.5-.2-.5-.6,0-.3,0-.6,0-.9,0,0-.2-.2-.2-.2-.2.1-.5.3-.7.5-2.5,1.8-5.1,1.9-7.8.6-1.5-.7-2.4-2-3-3.6-.3-.8-.5-1.6-.5-2.5v-10c0-.4.2-.6.5-.6.3,0,.6,0,.8,0,2.8,0,2.4-.5,2.4,2.6,0,2.2,0,4.4,0,6.5,0,.7,0,1.4.3,2.1.4,1.6,1.6,2.5,3.1,2.6.7,0,1.5,0,2.2-.3,1-.4,1.7-1.2,2.1-2.2.3-.6.4-1.3.4-1.9,0-.6,0-1.2,0-1.8v-6.5c0-.2,0-.4,0-.5,0-.2.2-.5.4-.5h2.9c.2,0,.4.2.4.5,0,.5,0,1,0,1.5v6.7h0Z"/>
  <path class="st2" d="M291.4,212.8v-7.1c0-.4,0-.7,0-1.1,0,0,.1-.2.2-.3.2,0,.3,0,.5,0h1.7c.9,0,1.1,0,1.1,1.1,0,.1,0,.2,0,.4,0,.2.2.3.4.2,0,0,.2-.1.3-.2,1.2-1.1,2.7-1.5,4.2-1.7,1.1-.1,2.2,0,3.2.4,2.4.9,3.6,2.8,4,5.3,0,.4,0,.8,0,1.3v9.4c0,.1,0,.2,0,.4,0,.2-.2.5-.4.5h-2.9c-.2,0-.4-.2-.4-.5,0-.5,0-1,0-1.5v-7.3c0-.7,0-1.4-.3-2.1-.4-1.2-1.1-1.9-2.2-2.3-1.2-.4-2.4-.2-3.5.3-1.4.7-2,1.9-2.2,3.4,0,.6,0,1.2,0,1.8v6.7c0,.3,0,.6,0,.9,0,.2-.1.3-.3.3-1,.1-2,.1-3,0,0,0-.2-.2-.2-.2,0-.4,0-.7,0-1.1v-7.3h0Z"/>
  <path class="st6" d="M104.4,219.7c.2-.9.7-1.6,1.1-2.4.2-.3.4-.4.7-.2,1.3.7,2.6,1.1,4.1,1.3,1.1.2,2.1,0,3.2-.3.4-.1.7-.4,1-.7.4-.6.3-1.5-.3-1.9-.5-.3-1-.5-1.6-.6-.8-.1-1.6-.3-2.4-.4-.8-.2-1.7-.3-2.5-.7-.4-.2-.7-.3-1.1-.5-1.1-.7-1.8-1.8-1.8-3.3,0-.8,0-1.6.3-2.3.4-.9,1-1.6,1.7-2.2.8-.5,1.6-.9,2.5-1.1,1.4-.3,2.8-.4,4.2-.2,1.2.2,2.3.4,3.5.9.2,0,.4.2.6.3.1,0,.2.3.2.5-.4.8-.7,1.5-1.1,2.3-.1.3-.4.4-.7.2-1.7-.8-3.5-1-5.3-.8-.6,0-1.1.2-1.6.6-.3.3-.5.6-.5,1.1,0,.5.2.9.6,1.2.6.4,1.4.6,2.1.7,1.1.2,2.2.4,3.3.7.5.1,1.1.3,1.6.6,2,.9,2.6,3.1,2.2,5-.2,1.1-.8,2-1.7,2.7-.8.6-1.7,1-2.6,1.3-1.5.4-2.9.4-4.4.3-1.6-.2-3.1-.6-4.6-1.4-.2,0-.3-.2-.4-.3,0,0-.1-.2-.2-.3h0Z"/>
  <path class="st6" d="M420.5,208.1c-.7.7-1.6,1.1-2.3,1.6-.3.2-.5.1-.8-.2-.6-.7-1.3-1.3-2.2-1.6-2.7-1-6,.7-6.3,4.3,0,1,0,1.9.3,2.9.7,1.9,1.9,2.9,3.8,3.2,1.4.2,2.6,0,3.7-1,.4-.3.7-.8,1.1-1.2.2,0,.3,0,.5.1.6.4,1.3.8,1.9,1.2.4.2.4.5.2.9-.8,1.4-2,2.3-3.4,2.9-3,1.1-5.8.8-8.4-1.1-2.1-1.5-3.2-3.5-3.4-6.2,0-.9,0-1.8,0-2.7.3-1.9,1.1-3.5,2.5-4.8,1.2-1.1,2.6-1.8,4.2-2.1,1.3-.3,2.6-.2,3.9,0,1.8.4,3.4,1.4,4.4,3.1.1.2.2.4.3.7h0Z"/>
  <path class="st10" d="M219,212.3v-3.8c0-.5-.2-.8-.7-.8-.4,0-.9,0-1.4,0-.3,0-.5-.2-.5-.6,0-.7,0-1.3,0-2,0-.4.2-.6.7-.6,2.1,0,1.9,0,1.9-2.1,0-.4,0-.8,0-1.3,0-.3.3-.6.6-.6.9,0,1.8,0,2.7,0,.2,0,.5.3.5.5,0,.7,0,1.5,0,2.2,0,.3,0,.6,0,.9,0,0,.1.2.2.2.2,0,.3,0,.5,0h2.2c1.2,0,1.3,0,1.3,1.5,0,.4,0,.7,0,1.1,0,.5-.2.7-.6.7-.9,0-1.8,0-2.7,0-.2,0-.5,0-.7.1,0,0-.2.1-.2.3,0,.2,0,.3,0,.5v7.1c0,.2,0,.5,0,.7.1,1.6,1.5,2.2,2.5,2.1.3,0,.6-.1.8-.2,1.1-.4.9-.4,1.4.8,0,.2.2.5.2.7.4,1,.2,1.2-.7,1.6-1.6.7-3.3.7-5,.1-1.6-.6-2.6-1.8-3-3.6-.1-.7-.2-1.4-.2-2.2,0-1.1,0-2.2,0-3.3h0Z"/>
  <path class="st6" d="M320.5,217.9c0,0,.2.1.2.2.4.8.7,1.5.9,2.3-.2.2-.2.3-.4.4-2,1.1-4,1.2-6.1.2-1.6-.8-2.4-2.2-2.6-4,0-.5,0-1.1,0-1.6v-6.5c0-.3,0-.6,0-.9,0-.1-.2-.3-.3-.3-.6,0-1.2,0-1.9-.1-.2,0-.3-.2-.3-.3,0-.8,0-1.6,0-2.4,0-.2.2-.4.5-.4.6,0,1.1,0,1.7,0,.2,0,.4-.2.4-.5,0-1,0-1.9,0-2.9,0-.2.2-.4.5-.5.2,0,.3,0,.5,0h1.7c1,0,1.1.2,1.1,1.1,0,.7,0,1.5,0,2.2,0,.3.2.6.5.6.9,0,1.8,0,2.7,0,.2,0,.5,0,.7,0,.1,0,.3.2.3.3,0,.8,0,1.6,0,2.3,0,.1-.2.3-.3.4-.2,0-.4,0-.7,0-.9,0-1.7,0-2.6,0-.6,0-.8.2-.8.9v7.5c0,1.8,1.5,2.7,2.9,2.3.4-.1.9-.3,1.3-.4h0Z"/>
  <path class="st6" d="M542.9,217.8c.2.6.4,1,.6,1.5.6,1.4.4,1.5-1,2.1-1.5.5-3,.6-4.5,0-1.9-.7-2.9-2-3.2-4.1,0-.6,0-1.2,0-1.8v-6.2c0-.4,0-.7,0-1.1,0-.3-.3-.5-.6-.5-.5,0-1,0-1.5,0-.3,0-.5-.2-.5-.6,0-.2,0-.5,0-.7,0-1.9-.2-1.9,1.7-1.9.2,0,.3,0,.5,0,.2,0,.4-.3.4-.5,0-.4,0-.9,0-1.3,0-2.2-.2-2.1,1.9-2.1.4,0,.8,0,1.2,0,.4,0,.6.3.7.7,0,.7,0,1.5,0,2.2,0,.2,0,.5,0,.7,0,0,.1.2.2.2.2,0,.3,0,.5,0,.8,0,1.6,0,2.4,0,.9,0,1.2,0,1.1,1.3,0,.5,0,1.1,0,1.6,0,0-.1.2-.2.2-.2,0-.3,0-.5,0-.9,0-1.8,0-2.7,0-.2,0-.3,0-.5,0,0,0-.2.2-.2.3,0,.2,0,.3,0,.5v7.3c0,.3,0,.6,0,.9.2.7.5,1.2,1.1,1.5.6.3,1.2.3,1.8.1.4-.1.7-.3,1.3-.4h0Z"/>
  <path class="st6" d="M568.9,204.4c0,.7,0,1.3.1,1.8.2,0,.3,0,.4,0,.3-.2.5-.5.8-.7,1.2-.9,2.5-1.3,4-1.3.2,0,.4.3.4.5,0,1,.1,2,0,3.1,0,0,0,.1-.1.2-.4,0-.9,0-1.3,0-1.7.1-3.5,1.3-3.9,3.7-.1.8-.2,1.5-.2,2.3v6c0,.3,0,.6,0,.9,0,.4-.2.6-.5.6-.9,0-1.8,0-2.7,0-.3,0-.5-.3-.5-.6,0-.4,0-.7,0-1.1v-13.8c0-.4,0-.9,0-1.3,0-.2.1-.3.3-.3,1,0,2,0,3.2,0h0Z"/>
  <path class="st2" d="M356.1,212.9v-7.3c0-.3,0-.6,0-.9,0-.1.2-.3.3-.3.9,0,1.8,0,2.7,0s.4.2.4.4c0,.4,0,.7.1,1.1,0,.1.3.3.4.2.1-.1.3-.2.4-.3,1.2-1.1,2.7-1.5,4.2-1.6.2,0,.5.2.5.4,0,1,0,2.1,0,3.1,0,0-.1.2-.2.2-.5,0-.9,0-1.4.1-1.2.1-2.3.7-3,1.8-.5.8-.7,1.6-.8,2.6,0,.5,0,1,0,1.5v6.3c0,.2,0,.5,0,.7,0,.3-.2.6-.5.6-.7,0-1.5,0-2.2,0-.2,0-.3,0-.5,0-.3,0-.5-.2-.5-.6,0-.5,0-1,0-1.5v-6.5h0Z"/>
  <path class="st2" d="M161.6,212.8v-7.1c0-.4,0-.7,0-1.1,0,0,.1-.2.2-.2,0,0,.2,0,.3,0h2.4c.3,0,.5.2.6.5,0,.4,0,.7.1,1.1,0,.1.1.2.3.1.3-.2.6-.4.8-.6,1.2-.9,2.6-1.3,4-1.3.2,0,.4.2.4.5,0,.7,0,1.5,0,2.2s0,1.1-1,1.1-1.2,0-1.8.3c-1.1.5-1.9,1.3-2.3,2.5-.3.8-.3,1.5-.3,2.3v6.2c0,.5,0,1.1,0,1.6,0,.3-.3.5-.6.5-.9,0-1.8,0-2.7,0-.2,0-.4-.2-.4-.5,0-.5,0-1,0-1.5v-6.7h0Z"/>
  <path class="st5" d="M157.3,173v6.9c0,.6-.2.8-.9.8-.2,0-.3,0-.5,0,0,0-.2-.1-.2-.2,0,0,0-.2,0-.3v-10.1c0,0,0-.1,0-.2,0-.2.2-.5.4-.5.6,0,1.1,0,1.7,0,.2.4.4.7.6,1.1.8,1.7,1.6,3.5,2.4,5.2.1.3.3.5.5.8,0,0,.2,0,.3,0,.2-.2.3-.5.4-.8.8-1.7,1.6-3.5,2.4-5.2.2-.4.4-.7.6-1.1.5,0,.9,0,1.4,0s.7.2.7.8c0,.4,0,.8,0,1.3v7.8c0,.4,0,.8,0,1.3,0,.2-.2.4-.5.4-.2,0-.4,0-.7,0-.3,0-.5-.3-.5-.6,0-1.6,0-3.3,0-4.9,0-.6,0-1.2,0-1.8,0-.1,0-.2-.2-.2,0,0-.1,0-.1,0-.1.3-.3.5-.4.8-.6,1.4-1.3,2.8-1.9,4.2-.1.3-.2.5-.4.8-.3.5-1.2.5-1.5,0-.2-.3-.3-.6-.5-1-.7-1.6-1.4-3.2-2.1-4.7,0-.2-.2-.3-.3-.4,0,0-.2,0-.3,0h0Z"/>
  <path class="st4" d="M149.9,169.2h3.6c.4,0,.6.2.6.7,0,.2,0,.4,0,.5,0,0,0,.1,0,.2,0,0-.1.2-.2.3-.4,0-.8,0-1.2,0-.5,0-1,0-1.5,0,0,0-.2.1-.2.2,0,.3,0,.6,0,.9v7.6c0,.8-.2,1-.9,1s-.3,0-.5,0c-.1,0-.3-.2-.3-.3,0-.3,0-.7,0-1.1v-6.9c0-.4,0-.7,0-1.1,0,0-.1-.2-.2-.3-.3,0-.7,0-1,0-.6,0-1.1,0-1.7,0,0,0-.2-.2-.2-.2,0-.2,0-.5,0-.7,0-.5.2-.7.6-.7.6,0,1.1,0,1.7,0h1.9,0Z"/>
</svg>