<?xml version="1.0" encoding="UTF-8"?>
<svg id="Layer_2" data-name="Layer 2" xmlns="http://www.w3.org/2000/svg" viewBox="0 0 188.7 57.93">
  <defs>
    <style>
      .cls-1 {
        fill: #009cdf;
      }
    </style>
  </defs>
  <g id="Post_5" data-name="Post 5">
    <g>
      <path class="cls-1" d="M95.36,46.92c-4.16,0-8.63.2-13.41.6-1.38,1.23-2.71,2.48-4,3.74-1.29,1.26-2.61,2.54-3.95,3.83,6.33.06,12.26.31,17.78.77,5.52.46,10.58,1.15,15.2,2.06,1.29-1.66,2.59-3.27,3.89-4.84,1.3-1.56,2.59-3.17,3.85-4.84-4.56-.63-8.53-1.01-11.93-1.14-3.4-.13-5.87-.19-7.42-.19Z"/>
      <path class="cls-1" d="M178.57,25.82c-3.78.3-7.8.64-12.04,1.01-4.24.37-8.55.74-12.94,1.1-4.39.36-8.78.7-13.2,1.03-4.41.33-8.68.61-12.81.84-4.13.23-7.65.38-10.55.45-2.91.07-5.31.11-7.2.11-1.01,0-1.97,0-2.92-.02v-.06c-4.64-.14-9.14-.46-13.5-.95-4.36-.49-8.46-1.21-12.32-2.17-3.85-.96-7.39-2.19-10.62-3.7-3.22-1.5-6.03-3.35-8.43-5.55-2.39-2.19-4.3-4.76-5.72-7.72-1.42-2.95-3.99-6.35-4.25-10.19-.92,1.66-.13,3.33-1.11,5.01-.97,1.68-3.68,3.35-4.65,5.01.6,2.29,2.34,4.33,3.56,6.86.54,1.13.65,2.43.98,3.65.71,2.68.23,5.58-1.44,7.79,0,.01-.02.02-.03.03-.85,1.11-1.71,1.77-2.58,2.01v-.05c-.92,0-1.83-.63-2.75-1.89-.92-1.26-1.68-3.25-2.28-5.98-1.26.72-2.51,1.41-3.76,2.08-1.25.67-2.57,1.3-3.98,1.89-1.4.59-2.94,1.12-4.6,1.59-1.66.47-3.55.88-5.65,1.23-2.11.34-4.49.61-7.14.8-2.65.19-5.65.28-9.01.28h-.13v.09H0v11.9c1.25.42,2.59.66,3.99.66h3.91c2.56-.01,5.18-.18,7.89-.52,2.79-.34,5.53-.86,8.21-1.55,2.68-.69,5.24-1.54,7.7-2.56,2.45-1.02,4.66-2.19,6.64-3.5.29,1.72.74,3.11,1.38,4.17.63,1.06,1.33,1.88,2.11,2.47.77.59,1.58.98,2.41,1.18.7.17,1.36.26,1.98.29v.1c1.06-.06,2.08-.44,3.07-1.14.99-.7,1.93-1.63,2.84-2.79.9-1.16,1.78-2.51,2.62-4.04.85-1.53,1.67-3.17,2.47-4.92,2.18,2.75,4.86,4.99,8.06,6.71,3.2,1.72,6.88,3.05,11.05,4,4.17.95,8.53,1.56,13.09,1.83,4.56.27,9.11.41,13.67.41.85,0,1.72-.02,2.58-.03v.03c2.21-.03,4.79-.12,7.76-.28,2.97-.16,6.19-.36,9.67-.6,3.48-.24,7.17-.51,11.07-.8,3.9-.29,7.87-.59,11.93-.92,4.06-.33,8.14-.65,12.25-.97,4.11-.31,8.14-.62,12.08-.9,3.94-.29,7.72-.54,11.35-.77,2.43-.15,4.74-.28,6.93-.38v-12.36c-3.11.2-6.48.44-10.13.73Z"/>
      <path class="cls-1" d="M19.46,15.56c.29-.34.47-.73.56-1.16.09-.43.13-.83.13-1.2v-.39c-.06-.52-.19-1-.41-1.46-.21-.46-.51-.8-.88-1.03l-9.07-5.76L3.9,13.84l10.92,8.21,4.64-6.49Z"/>
    </g>
  </g>
</svg>