<?xml version="1.0" encoding="UTF-8"?>
<svg id="Layer_1" xmlns="http://www.w3.org/2000/svg" version="1.1" viewBox="0 0 949.5 73.8">
  <!-- Generator: Adobe Illustrator 29.8.2, SVG Export Plug-In . SVG Version: 2.1.1 Build 3)  -->
  <defs>
    <style>
      .st0 {
        fill: #231f20;
      }
    </style>
  </defs>
  <g id="BLOCK_x5F_RECORD">
    <polygon class="st0" points="16.1 12.4 48.8 71.7 86.6 71.8 118.7 12.4 134.8 12.4 134.8 1.6 86.4 1.6 86.4 12.4 100.4 12.4 77 55.6 53.3 12.4 70.3 12.4 70.3 1.6 0 1.6 0 12.4 16.1 12.4"/>
    <path class="st0" d="M432.4,12.4V1.6s64.8,0,64.8,0v10.7h-16.1v48.5h15c13.9,0,23-9.2,23-21.6h10.7v32.5h-97.3s0-10.9,0-10.9h16.3V12.4h-16.3Z"/>
    <path d="M275.3.1c-32.5,0-49.8,16.2-49.8,36.6s16.6,37.1,50,37.1,49.8-16.5,49.8-37.1S307.9.1,275.3.1ZM275,62.7c-11.9-.2-17.1-13.3-16.9-26.4.2-13.5,6.7-25.3,17.8-25.1,11.1.2,17,12.2,16.8,25.7-.2,12.7-5.5,26-17.7,25.8Z"/>
    <polygon class="st0" points="640.2 12.4 672.9 71.7 710.7 71.8 742.8 12.4 758.9 12.4 758.9 1.6 710.5 1.6 710.5 12.4 724.5 12.4 701.1 55.6 677.4 12.4 694.4 12.4 694.4 1.6 624.1 1.6 624.1 12.4 640.2 12.4"/>
    <path d="M899.4.1c-32.5,0-49.8,16.2-49.8,36.6s16.6,37.1,50,37.1,49.8-16.5,49.8-37.1S932,.1,899.4.1ZM899.1,62.7c-11.9-.2-17.1-13.3-16.9-26.4.2-13.5,6.7-25.3,17.8-25.1,11.1.2,17,12.2,16.8,25.7-.2,12.7-5.5,26-17.7,25.8Z"/>
  </g>
</svg>