<svg width="560" height="140" viewBox="0 0 560 140" fill="none" xmlns="http://www.w3.org/2000/svg">
  <rect x="0" y="0" width="560" height="140" rx="24" fill="#0F172A"/>
  <path d="M42 96V44H56.8L74.5 73.4L92.2 44H107V96H93.3V67.3L78.2 92H70.8L55.7 67.3V96H42Z" fill="#E2E8F0"/>
  <path d="M128 96V44H141.8V96H128Z" fill="#E2E8F0"/>
  <path d="M162 96V44H175.5L202.3 74.4V44H216V96H202.5L175.7 65.6V96H162Z" fill="#E2E8F0"/>
  <path d="M238 96V44H275.8V56H251.8V64.7H273.1V76.1H251.8V84H276.6V96H238Z" fill="#E2E8F0"/>
  <path d="M299 96V44H326.7C333.2 44 338.3 45.8 342.1 49.4C345.9 53 347.8 57.5 347.8 63C347.8 66.2 347.1 69.1 345.8 71.7C344.4 74.3 342.5 76.3 340 77.9L351.6 96H336.2L327 81.8H312.8V96H299ZM312.8 70.2H325.6C327.8 70.2 329.6 69.5 331 68.1C332.4 66.7 333.1 65 333.1 63C333.1 61 332.4 59.3 331 57.9C329.6 56.5 327.8 55.8 325.6 55.8H312.8V70.2Z" fill="#E2E8F0"/>
  <path d="M372 96V44H399.6C408.1 44 415 46.4 420.2 51.1C425.3 55.8 427.9 62.2 427.9 70.3C427.9 78.4 425.3 84.8 420.2 89.5C415 94.2 408.1 96.6 399.6 96.6H372V96ZM385.8 84.2H399.2C404 84.2 407.9 82.8 410.8 80C413.7 77.2 415.2 74 415.2 70.3C415.2 66.6 413.7 63.4 410.8 60.6C407.9 57.8 404 56.4 399.2 56.4H385.8V84.2Z" fill="#E2E8F0"/>
  <path d="M448 96V44H461.8V96H448Z" fill="#E2E8F0"/>
  <path d="M483 96V44H520.8V56H496.8V64.7H518.1V76.1H496.8V84H521.6V96H483Z" fill="#E2E8F0"/>
</svg>

